<svg id="Layer_1" data-name="Layer 1" xmlns="http://www.w3.org/2000/svg" viewBox="0 0 274.12 181.48"><defs><style>.cls-1{fill:#abb7d0;}.cls-2{fill:#013289;}</style></defs><title>Web Icons</title><path class="cls-1" d="M152.59,86.43l55.46-16.81a10.12,10.12,0,0,1,12.32,5.88h0a10.13,10.13,0,0,1-4.27,12.57l-70.47,41.18a32.84,32.84,0,0,1-16.57,4.49h0a32.89,32.89,0,0,1-13-2.7l-16.15-7a32.83,32.83,0,0,0-23.41-1l-13.91,4.63L57.49,81.11,99.56,69.67a35.38,35.38,0,0,1,20,.43l26.18,8.33a10,10,0,0,1,6.82,11.37l0,.24A10,10,0,0,1,140.4,98l-27.24-6.25"/><path class="cls-2" d="M205,72.12,151.43,88.33a12,12,0,0,0-7.64-7.4l-1.09-.34c6.32,1.85,15.2,1.94,16.7,1.94,2.37,0,23.17-.21,23.17-7.28a2,2,0,0,0-2-2h-.07a4.17,4.17,0,0,0,2-3.36,2,2,0,0,0-2-2h-.07a4.15,4.15,0,0,0,2-3.35,2,2,0,0,0-2-2h-.07a4.17,4.17,0,0,0,2-3.36,2,2,0,0,0-2-2h-.07a4.17,4.17,0,0,0,2-3.36,2,2,0,0,0-2-2h-.07a4.15,4.15,0,0,0,2-3.36c0-7.06-20.8-7.27-23.17-7.27s-23.16.21-23.16,7.27a4.13,4.13,0,0,0,2,3.36h-.07a2,2,0,0,0-2,2,4.14,4.14,0,0,0,2,3.36h-.07a2,2,0,0,0-2,2,4.14,4.14,0,0,0,2,3.36h-.07a2,2,0,0,0-2,2,4.12,4.12,0,0,0,2,3.35h-.07a2,2,0,0,0-2,2,4.14,4.14,0,0,0,2,3.36h-.07a2,2,0,0,0-2,2c0,2.35,2.3,3.94,5.45,5L117.6,72.6a37.25,37.25,0,0,0-21.08-.45L54.45,83.59a2,2,0,0,0,1,3.78L97.55,75.94a33.26,33.26,0,0,1,18.86.4l26.19,8.33a8.09,8.09,0,0,1,5.49,9.15l-.05.23a8.06,8.06,0,0,1-9.74,6.4L111.06,94.2a2,2,0,1,0-.87,3.82l27.24,6.26a12.52,12.52,0,0,0,2.71.31,12,12,0,0,0,11.76-9.83l0-.23a13,13,0,0,0,.2-2.31l53.94-16.35A8.14,8.14,0,0,1,216,80.61a8.23,8.23,0,0,1-3.45,10.14l-70.47,41.18a30.86,30.86,0,0,1-27.84,1.68l-16.15-7a34.71,34.71,0,0,0-24.81-1.08L59.4,130.18a2,2,0,1,0,1.24,3.72l13.91-4.64a30.87,30.87,0,0,1,22,1l16.15,7a34.79,34.79,0,0,0,31.36-1.89l70.48-41.19a12.09,12.09,0,0,0-9.61-22ZM159.4,45.33c10.89,0,17.8,2.05,19.12,3.35C177.2,50,170.29,52,159.4,52s-17.79-2-19.11-3.36C141.61,47.38,148.52,45.33,159.4,45.33Zm0,10.63c1.75,0,13.49-.12,19.55-3a2,2,0,0,0-.3.88c-.9,1.29-7.92,3.51-19.25,3.51s-18.34-2.22-19.24-3.51a1.94,1.94,0,0,0-.31-.88C145.92,55.84,157.66,56,159.4,56Zm0,5.31c1.75,0,13.49-.11,19.55-3a2,2,0,0,0-.3.89c-.9,1.29-7.92,3.5-19.25,3.5s-18.34-2.21-19.24-3.5a1.94,1.94,0,0,0-.31-.89C145.92,61.16,157.66,61.27,159.4,61.27Zm0,5.32c1.75,0,13.49-.12,19.55-3a2.14,2.14,0,0,0-.3.89c-.9,1.29-7.92,3.51-19.25,3.51s-18.34-2.22-19.24-3.51a2,2,0,0,0-.31-.89C145.92,66.47,157.66,66.59,159.4,66.59Zm0,5.31c1.75,0,13.49-.12,19.55-3a2,2,0,0,0-.3.88c-.9,1.29-7.92,3.51-19.25,3.51s-18.34-2.22-19.24-3.51a1.94,1.94,0,0,0-.31-.88C145.92,71.78,157.66,71.9,159.4,71.9Zm-19.24,3.2a1.94,1.94,0,0,0-.31-.89c6.07,2.89,17.81,3,19.55,3s13.49-.11,19.55-3a2,2,0,0,0-.3.89c-.9,1.29-7.92,3.51-19.25,3.51S141.06,76.39,140.16,75.1Z"/></svg>