<svg id="Layer_1" data-name="Layer 1" xmlns="http://www.w3.org/2000/svg" viewBox="0 0 274.12 181.48"><defs><style>.cls-1{fill:#abb7d0;}.cls-2{fill:#013289;}</style></defs><title>Web Icons</title><path class="cls-1" d="M112.54,141.18l5-1.73.61-1.47-2.32-4.79a4.16,4.16,0,0,1,.8-4.77l4.75-4.75a4.23,4.23,0,0,1,4.81-.84l1.62.79h0l3.15,1.53,1-.42h0l.46-.19,1.42-4.11V57.5L71.23,80.11v63.3h38.88A4.18,4.18,0,0,1,112.54,141.18Z"/><path class="cls-1" d="M133.88,120.42l.31-.89a4.18,4.18,0,0,1,3.95-2.81h6.76a4.18,4.18,0,0,1,3.95,2.81l1.73,5,1.48.61,4.78-2.32a4.19,4.19,0,0,1,4.78.8l4.71,4.72a4.37,4.37,0,0,1,1.26,2.87,4.34,4.34,0,0,1,1.54-.95l2.53-.87L170.48,127a4.19,4.19,0,0,1,.81-4.78l3.15-3.14a4.18,4.18,0,0,1,4.77-.81l2.42,1.17.88-2.52a4.16,4.16,0,0,1,3.94-2.82h4.45a4.18,4.18,0,0,1,3.95,2.82l.88,2.52,2.41-1.17a3.61,3.61,0,0,1,.62-.24,4.16,4.16,0,0,1,4.16,1h0l1.88,1.88V29.27H189.45v-26h-40.2v26H133.88V57.5h0Z"/><path class="cls-2" d="M67.26,150.6h42.47v-4.18h0V122.93H87.48v23.49H69.34V86.68l58.48-21.11v58.05h0l3.15,1.53,1-.42h0V36.46h13.29a2.08,2.08,0,0,0,2.08-2.08V10.45h36V34.38a2.08,2.08,0,0,0,2.09,2.08h13.28V118a4.16,4.16,0,0,1,4.16,1h0V34.38a2.08,2.08,0,0,0-2.08-2.09H187.57V8.37a2.09,2.09,0,0,0-2.09-2.09H145.29a2.08,2.08,0,0,0-2.09,2.09V32.29H129.91a2.09,2.09,0,0,0-2.09,2.09V61.13L66.55,83.25a2.08,2.08,0,0,0-1.38,2v63.3A2.08,2.08,0,0,0,67.26,150.6Zm24.39-23.5h13.87v19.32H91.65Z"/><rect class="cls-2" x="78.2" y="88.55" width="4.18" height="11.48"/><rect class="cls-2" x="90.4" y="88.55" width="4.18" height="11.48"/><rect class="cls-2" x="102.6" y="88.55" width="4.18" height="11.48"/><rect class="cls-2" x="114.8" y="88.55" width="4.18" height="11.48"/><rect class="cls-2" x="151.09" y="18.01" width="4.18" height="11.48"/><rect class="cls-2" x="163.29" y="18.01" width="4.18" height="11.48"/><rect class="cls-2" x="175.49" y="18.01" width="4.18" height="11.48"/><rect class="cls-2" x="138.89" y="44.21" width="4.18" height="11.48"/><rect class="cls-2" x="151.09" y="44.21" width="4.18" height="11.48"/><rect class="cls-2" x="163.29" y="44.21" width="4.18" height="11.48"/><rect class="cls-2" x="175.49" y="44.21" width="4.18" height="11.48"/><rect class="cls-2" x="187.69" y="44.21" width="4.18" height="11.48"/><rect class="cls-2" x="138.89" y="70.42" width="4.18" height="11.48"/><rect class="cls-2" x="151.09" y="70.42" width="4.18" height="11.48"/><rect class="cls-2" x="163.29" y="70.42" width="4.18" height="11.48"/><rect class="cls-2" x="175.49" y="70.42" width="4.18" height="11.48"/><rect class="cls-2" x="187.69" y="70.42" width="4.18" height="11.48"/><rect class="cls-2" x="138.89" y="96.62" width="4.18" height="11.48"/><rect class="cls-2" x="151.09" y="96.62" width="4.18" height="11.48"/><rect class="cls-2" x="163.29" y="96.62" width="4.18" height="11.48"/><rect class="cls-2" x="175.49" y="96.62" width="4.18" height="11.48"/><rect class="cls-2" x="187.69" y="96.62" width="4.18" height="11.48"/><rect class="cls-2" x="78.2" y="104.27" width="4.18" height="11.48"/><rect class="cls-2" x="90.4" y="104.27" width="4.18" height="11.48"/><rect class="cls-2" x="102.6" y="104.27" width="4.18" height="11.48"/><rect class="cls-2" x="114.8" y="104.27" width="4.18" height="11.48"/><path class="cls-2" d="M159.11,145.38a17.8,17.8,0,0,0-2.94-7.08,18.14,18.14,0,0,0-4.43-4.44,17.74,17.74,0,0,0-7.09-2.93,16.48,16.48,0,0,0-6.26,0A17.74,17.74,0,0,0,132,133.4h0c-.23.14-.47.29-.7.45a18.07,18.07,0,0,0-3.47,3.18h0c-.33.4-.65.83-.95,1.26a17.8,17.8,0,0,0-2.94,7.08c-.06.35-.11.69-.16,1a16.87,16.87,0,0,0,0,4.18c0,.35.1.7.16,1a17.84,17.84,0,0,0,7.38,11.52,17.65,17.65,0,0,0,7.08,2.94,17,17,0,0,0,6.26,0,17.89,17.89,0,0,0,14.46-14.46c.06-.34.12-.69.16-1a16.87,16.87,0,0,0,0-4.18C159.23,146.07,159.17,145.72,159.11,145.38Zm-17.59,16.84A13.72,13.72,0,0,1,128,150.6a14.37,14.37,0,0,1-.17-2.09v-.14a13.66,13.66,0,0,1,4.18-9.69h0a13.67,13.67,0,0,1,23.05,7.74,12.93,12.93,0,0,1,0,4.18A13.72,13.72,0,0,1,141.52,162.22Z"/><path class="cls-2" d="M169.82,143.16l-5.9-2-1.33-3.21,2.73-5.63a2.2,2.2,0,0,0-.46-2.45l-4.72-4.72a2.09,2.09,0,0,0-2.39-.4l-5.62,2.73-3.21-1.33-2-5.9a2.08,2.08,0,0,0-2-1.4h-6.76a2.08,2.08,0,0,0-2,1.4l-2,5.9L132,127h0l-1.08.45-3.09-1.5h0l-2.53-1.23a2.14,2.14,0,0,0-2.42.43l-4.75,4.75a2.09,2.09,0,0,0-.4,2.39l2.73,5.63-1.33,3.21-5.9,2a2.08,2.08,0,0,0-1.4,2v6.76a2.09,2.09,0,0,0,1.4,2l5.9,2,1.33,3.21-2.73,5.62a2.09,2.09,0,0,0,.4,2.39l4.78,4.78a2.11,2.11,0,0,0,2.39.41l5.63-2.74,3.21,1.33,2,5.9a2.09,2.09,0,0,0,2,1.41h6.76a2.09,2.09,0,0,0,2-1.41l2-5.9,3.21-1.33,5.62,2.74a2.11,2.11,0,0,0,2.39-.41l4.78-4.78a2.09,2.09,0,0,0,.4-2.39l-2.73-5.62,1.33-3.21,5.9-2a2.09,2.09,0,0,0,1.4-2v-1.28h0v-5.47a2.11,2.11,0,0,0-1.4-2Zm-8.15,9.11a2.07,2.07,0,0,0-1.25,1.17l-2,4.95a2.12,2.12,0,0,0,0,1.71l2.5,5.13-2.68,2.68-5.13-2.49a2.11,2.11,0,0,0-1.72,0l-4.94,2a2.09,2.09,0,0,0-1.17,1.25L143.41,174h-3.78l-1.87-5.38a2.09,2.09,0,0,0-1.17-1.25l-4.94-2a2.08,2.08,0,0,0-1.71,0l-5.14,2.49-2.68-2.68,2.5-5.13a2.08,2.08,0,0,0,0-1.71l-2-4.95a2.07,2.07,0,0,0-1.25-1.17l-4.82-1.67-.56-.19v-3.79l.56-.2,4.82-1.66a2.11,2.11,0,0,0,1.25-1.18l2-4.94a2.08,2.08,0,0,0,0-1.71l-2.5-5.14,2.68-2.67,3,1.46h0l2.11,1a2.08,2.08,0,0,0,1.71,0l.35-.15h0l4.59-1.9a2.07,2.07,0,0,0,1.17-1.25l1.87-5.38h3.78l1.87,5.38a2.07,2.07,0,0,0,1.17,1.25l4.94,2a2.1,2.1,0,0,0,1.72,0l5.13-2.49,2.68,2.67-2.5,5.14a2.12,2.12,0,0,0,0,1.71l2,4.94a2.11,2.11,0,0,0,1.25,1.18l4.81,1.66.57.2v3.79l-.55.19Z"/><path class="cls-2" d="M188.68,127a9.5,9.5,0,1,0,9.5,9.5A9.51,9.51,0,0,0,188.68,127Zm0,14.82a5.33,5.33,0,1,1,5.32-5.32A5.33,5.33,0,0,1,188.68,141.77Z"/><path class="cls-2" d="M207.55,132.25,204,131l-.64-1.52,1.66-3.42a2.09,2.09,0,0,0-.4-2.39L202.93,122l-1.49-1.49a2.08,2.08,0,0,0-2.39-.4l-.29.14-3.12,1.52-1.52-.63-1.24-3.58a2.1,2.1,0,0,0-2-1.41h-4.45a2.09,2.09,0,0,0-2,1.41l-1.24,3.58-1.52.63-3.42-1.66a2.09,2.09,0,0,0-2.39.4l-3.15,3.15a2.09,2.09,0,0,0-.4,2.39l1.66,3.42-.63,1.52-3.58,1.24a2.09,2.09,0,0,0-1.41,2v4.45a2.11,2.11,0,0,0,1.41,2l3.58,1.23.63,1.53-.73,1.49-.73,1.52-.2.4a2.09,2.09,0,0,0,.4,2.39l.55.55.84.84,1.76,1.76a2.09,2.09,0,0,0,2.39.4l3.42-1.66,1.52.63,1.24,3.58a2.09,2.09,0,0,0,2,1.41h4.45a2.1,2.1,0,0,0,2-1.41l1.24-3.58,1.52-.63,3.41,1.66a2.08,2.08,0,0,0,2.39-.4l3.15-3.15a2.09,2.09,0,0,0,.4-2.39l-1.66-3.41.64-1.53,3.58-1.23a2.1,2.1,0,0,0,1.4-2v-4.45A2.08,2.08,0,0,0,207.55,132.25Zm-2.77,4.94-1.85.63-1.22.42a2.12,2.12,0,0,0-1.24,1.18l-1.35,3.25a2.1,2.1,0,0,0,0,1.72l1.42,2.92-1.05,1.05-2.92-1.42a2.08,2.08,0,0,0-1.71-.06l-3.26,1.35a2.09,2.09,0,0,0-1.17,1.25l-.39,1.12-.67,1.94h-1.48l-.67-1.94-.39-1.12a2.11,2.11,0,0,0-1.18-1.25l-3.25-1.35a2.08,2.08,0,0,0-1.71.06l-2.93,1.42-1-1.05.43-.89,1-2a2.1,2.1,0,0,0,.05-1.72l-1.35-3.25a2.11,2.11,0,0,0-1.25-1.18l-3.06-1.05v-1.48l3.06-1.06a2.11,2.11,0,0,0,1.25-1.18l1.35-3.25a2.08,2.08,0,0,0-.05-1.71l-1.42-2.93,1-1,2.93,1.42a2.12,2.12,0,0,0,1.71.05l3.25-1.35a2.08,2.08,0,0,0,1.18-1.25l1.06-3.06h1.48l1.06,3.06a2.07,2.07,0,0,0,1.17,1.25l3.26,1.35a2.12,2.12,0,0,0,1.71-.05l2.14-1,.78-.38,1.05,1-1.42,2.93a2.08,2.08,0,0,0,0,1.71l1.35,3.25a2.09,2.09,0,0,0,1.24,1.18l1.22.42,1.85.64Z"/></svg>