<svg id="Layer_1" data-name="Layer 1" xmlns="http://www.w3.org/2000/svg" viewBox="0 0 274.12 181.48"><defs><style>.cls-1{fill:none;}.cls-2{fill:#abb7d0;}.cls-3{fill:#013289;}</style></defs><title>Web Icons</title><path class="cls-1" d="M128.23,97.41c0-1.63-1.23-3.5-2.46-5a24.29,24.29,0,0,0-2.46-2.53l-5.89-4.54a34.73,34.73,0,0,1-13.53-27.51V51.52a34.57,34.57,0,0,1,6.83-20.68,32.65,32.65,0,0,0-9.12,22.67v6.33a33,33,0,0,0,12.77,26l5.88,4.54a.27.27,0,0,1,.08.07c.94.8,5.62,5,5.62,9a10.08,10.08,0,0,1-1.15,4.67A8.13,8.13,0,0,0,128.23,97.41Z"/><path class="cls-1" d="M183.8,125.16a21.82,21.82,0,0,0,4.19,1.07,21.55,21.55,0,0,0,2.67.26l.92,0a23.18,23.18,0,1,0-23.18-23.18c0,.76,0,1.51.11,2.26v0a22.24,22.24,0,0,0,.74,3.92A23.23,23.23,0,0,0,183.8,125.16Zm-8.5-12.38,2.08-3,2.32-3.34.56-.82,2.33-3.38a2,2,0,0,1,1.62-.85h12.65l5.93-8-10.48,2-.5-2.7L206,90l2.05-.38.41,3.65L209.85,106l-2.73.31L206,95.71l-6.52,8.79a2,2,0,0,1-1.58.79H185.24l-1,1.48-1.28,1.86-2.29,3.31L178.52,115a2,2,0,0,1-1.61.84,2.07,2.07,0,0,1-.5-.06h0a2,2,0,0,1-.61-.28,2,2,0,0,1-.5-2.72Z"/><path class="cls-1" d="M83.72,126.54a9.76,9.76,0,0,0-3.12.51l.68-3.66a13.23,13.23,0,0,0-4.48,24.29c0-.19,0-.39.09-.59l.57-3.07a10,10,0,0,0,3.64,1.88,9.76,9.76,0,0,0,1.87.33,7.46,7.46,0,0,0,.51,3.4h.24a13.24,13.24,0,0,0,3.4-26,12.08,12.08,0,0,0-1.83-.35l-.61,3.33C84.36,126.56,84,126.54,83.72,126.54Z"/><path class="cls-1" d="M110.54,154.4h72a2.82,2.82,0,0,0,.41,0H110.56Z"/><path class="cls-2" d="M116.43,105.59H97.26c-.25,0-.49,0-.73,0H115.8C116,105.62,116.23,105.61,116.43,105.59Z"/><path class="cls-2" d="M171.07,53.51v6.32A37,37,0,0,1,163.58,82a34.77,34.77,0,0,0,9.78-24.18V51.52a34.72,34.72,0,0,0-34.73-34.74c-.79,0-1.58,0-2.35.08A36.74,36.74,0,0,1,171.07,53.51Z"/><path class="cls-2" d="M146.73,99.39a6.24,6.24,0,0,0,6.23,6.23H161a0,0,0,0,1,0,0h-3.81A8.18,8.18,0,0,1,149,97.41,6.7,6.7,0,0,1,150.34,94C148.71,95.52,146.73,98,146.73,99.39Z"/><path class="cls-2" d="M185.32,133.33a30.73,30.73,0,0,1-23.75-23.79H153a10.16,10.16,0,0,1-10.15-10.15c0-4,4.66-8.18,5.6-9l.08-.07,5.9-4.55a33,33,0,0,0,12.76-26V53.51a32.76,32.76,0,0,0-56.43-22.67,34.57,34.57,0,0,0-6.83,20.68v6.34a34.73,34.73,0,0,0,13.53,27.51l5.89,4.54a24.29,24.29,0,0,1,2.46,2.53c1.23,1.47,2.46,3.34,2.46,5a8.13,8.13,0,0,1-3.43,6.65,10.15,10.15,0,0,1-9,5.48H101.67l9.39,9.39-3.6,7.43.15.37,7.79,2.7v13.95l-7.79,2.69-.15.38,3.6,7.43-.5.5h72.36a5.57,5.57,0,0,0,5.08-6.57Z"/><path class="cls-2" d="M194.18,145.47,192.05,134h-.47c-.73,0-1.45,0-2.17-.08l2.44,13.2a9.46,9.46,0,0,1-.84,6A7.52,7.52,0,0,0,194.18,145.47Z"/><path class="cls-2" d="M92.38,109.57l1,3,.37.16,6.46-3.14H93Q92.7,109.54,92.38,109.57Z"/><path class="cls-3" d="M92.38,109.57q.32,0,.63,0h7.22l1-.47.46.47H115.8A10.18,10.18,0,0,0,126,99.39c0-4-4.68-8.18-5.62-9a.27.27,0,0,0-.08-.07l-5.88-4.54a33,33,0,0,1-12.77-26V53.51a32.78,32.78,0,1,1,65.55,0v6.32a33,33,0,0,1-12.76,26l-5.9,4.55-.08.07c-.94.8-5.6,5-5.6,9A10.16,10.16,0,0,0,153,109.54h8.61a29.82,29.82,0,0,1-.54-3.92H153a6.24,6.24,0,0,1-6.23-6.23c0-1.41,2-3.87,3.61-5.44.2-.2.4-.38.59-.54l5.86-4.52a36.43,36.43,0,0,0,6.76-6.83l0,0a37,37,0,0,0,7.49-22.2V53.51a36.74,36.74,0,0,0-34.79-36.65h0c-.63,0-1.26-.05-1.89-.05a36.74,36.74,0,0,0-36.7,36.7v6.33A37,37,0,0,0,112,88.91l5.84,4.5c1.71,1.49,4.21,4.4,4.21,6a6.24,6.24,0,0,1-5.59,6.2c-.2,0-.42,0-.63,0H93a9.67,9.67,0,0,0-1.94.19l.68,1.94Z"/><path class="cls-3" d="M189.41,133.89a29,29,0,0,1-4.09-.56L188,147.81a5.57,5.57,0,0,1-5.08,6.57,2.82,2.82,0,0,1-.41,0h-72l-3.93,3.93h75.9a9.5,9.5,0,0,0,7.31-3.43,9,9,0,0,0,1.19-1.83,9.46,9.46,0,0,0,.84-6Z"/><path class="cls-3" d="M100.71,136.4c0-.32,0-.64,0-1a16.86,16.86,0,0,0-4.29-10.34A12.66,12.66,0,0,0,95,123.74a16.93,16.93,0,0,0-7.21-3.82,14.2,14.2,0,0,0-1.84-.34,11.05,11.05,0,0,0-1.29-.13q-.48,0-1,0c-.32,0-.64,0-1,0s-.52,0-.77.06a16.88,16.88,0,0,0-9.57,4.23,13.63,13.63,0,0,0-1.37,1.37,16.86,16.86,0,0,0-4.29,10.34c0,.31,0,.63,0,1s0,.64,0,1a16.92,16.92,0,0,0,4.29,10.34,17.58,17.58,0,0,0,1.36,1.37,17,17,0,0,0,10.35,4.29H83c.23,0,.46,0,.7,0l1,0a16.43,16.43,0,0,0,1.72-.18A16.89,16.89,0,0,0,95,149.07a16,16,0,0,0,1.36-1.37,16.86,16.86,0,0,0,4.29-10.34C100.71,137,100.71,136.72,100.71,136.4Zm-17,13.24h-.24a12.34,12.34,0,0,1-2.8-.35,12.87,12.87,0,0,1-3.88-1.6,13.24,13.24,0,0,1,6.92-24.52,11.61,11.61,0,0,1,1.57.1,12.08,12.08,0,0,1,1.83.35,13.24,13.24,0,0,1-3.4,26Z"/><path class="cls-3" d="M103.75,146.56l1.32-3.18,5.69-2a1.86,1.86,0,0,0,1.26-1.77v-6.47a1.86,1.86,0,0,0-1.26-1.77l-5.69-2-1.32-3.18,2.64-5.44a1.88,1.88,0,0,0-.36-2.14l-4.57-4.57a1.87,1.87,0,0,0-2.15-.36l-5.43,2.64-3.17-1.32-1.26-3.64-.21-.6-.51-1.46A1.88,1.88,0,0,0,87,108.1H80.49a1.89,1.89,0,0,0-1.77,1.26l-2,5.7-3.18,1.32-5.43-2.64a2,2,0,0,0-2.21.42l-4.51,4.51a1.88,1.88,0,0,0-.36,2.14l2.65,5.44-1.33,3.18-5.68,2a1.86,1.86,0,0,0-1.27,1.77v6.47a1.86,1.86,0,0,0,1.27,1.77l5.68,2,1.33,3.18L61.06,152a1.87,1.87,0,0,0,.36,2.14L66,158.71a1.87,1.87,0,0,0,2.14.36l5.43-2.64,3.18,1.31,2,5.7a1.87,1.87,0,0,0,1.77,1.26H87a1.86,1.86,0,0,0,1.77-1.26l1.77-5.11.21-.59,3.17-1.31,3.91,1.9,1.52.74a1.89,1.89,0,0,0,2.15-.36l.38-.38,3.92-3.93,0,0,.25-.25a1.87,1.87,0,0,0,.36-2.14Zm-3.73.87.34.7,2.09,4.3-2,1.95,0,0-.72.72-1.48-.72,0,0L95.46,153l-.7-.34a1.88,1.88,0,0,0-1.54,0l-3.94,1.63-.28.12-.51.21a1.8,1.8,0,0,0-1,1.12l-.25.73-.66,1.87L85.63,161H81.82l-1.56-4.5-.11-.33-.14-.4A1.82,1.82,0,0,0,79,154.61l-.37-.15-4.36-1.81a1.85,1.85,0,0,0-1.53,0L72,153l-4.29,2.09L65,152.43l2.08-4.3.34-.7a1.86,1.86,0,0,0,0-1.53l-2-4.73a1.85,1.85,0,0,0-1.12-1l-.73-.25-4.5-1.56V134.5l4.5-1.56.73-.25a1.9,1.9,0,0,0,1.12-1.05l2-4.73a1.88,1.88,0,0,0,0-1.54l-.34-.7L65,120.38l2.7-2.69L72,119.77l.71.34a1.85,1.85,0,0,0,1.53,0l4.73-2A1.85,1.85,0,0,0,80,117.08l.25-.73,1.56-4.5h3.81l1.16,3.34.41,1.16.25.73a1.76,1.76,0,0,0,.71.94,1.74,1.74,0,0,0,.33.18l4.73,2a1.88,1.88,0,0,0,1.54,0l.7-.34,4.29-2.08,2.7,2.69-2.09,4.29-.34.7a1.88,1.88,0,0,0,0,1.54l2,4.73a1.9,1.9,0,0,0,1.12,1.05l.75.26,4.48,1.55v3.81l-4.49,1.55-.74.26a1.85,1.85,0,0,0-1.12,1l-2,4.73A1.86,1.86,0,0,0,100,147.43Z"/><path class="cls-3" d="M191.81,92.63l.5,2.7,10.48-2-5.93,8H184.21a2,2,0,0,0-1.62.85l-2.33,3.38-.56.82-2.32,3.34-2.08,3a2,2,0,0,0,.5,2.72,2,2,0,0,0,.61.28h0a2.07,2.07,0,0,0,.5.06,2,2,0,0,0,1.61-.84l2.12-3.07,2.29-3.31,1.28-1.86,1-1.48h12.61a2,2,0,0,0,1.58-.79L206,95.71l1.17,10.59,2.73-.31-1.42-12.73L208,89.61,206,90Z"/><path class="cls-3" d="M191.58,76.24a27.13,27.13,0,0,0-27.1,27.09c0,.76,0,1.52.1,2.26,0,0,0,0,0,0a25.22,25.22,0,0,0,.62,3.92,27.06,27.06,0,0,0,23.53,20.74,25.83,25.83,0,0,0,2.65.14h.19a27.1,27.1,0,1,0,0-54.19Zm0,50.27-.92,0a21.55,21.55,0,0,1-2.67-.26,21.82,21.82,0,0,1-4.19-1.07,23.23,23.23,0,0,1-14.55-15.62,22.24,22.24,0,0,1-.74-3.92v0c-.06-.75-.11-1.5-.11-2.26a23.18,23.18,0,1,1,23.18,23.18Z"/></svg>