<svg id="Layer_1" data-name="Layer 1" xmlns="http://www.w3.org/2000/svg" viewBox="0 0 274.12 181.48"><defs><style>.cls-1{fill:#abb7d0;}.cls-2{fill:#013289;}</style></defs><title>Web Icons</title><path class="cls-1" d="M92,98.52c0,19.75-14.69,35.76-14.69,35.76s-14.7-16-14.7-35.76S77.3,62.76,77.3,62.76,92,78.77,92,98.52Z"/><path class="cls-1" d="M217.17,72.13c0,19.75-14.7,35.76-14.7,35.76s-14.7-16-14.7-35.76,14.7-35.76,14.7-35.76S217.17,52.38,217.17,72.13Z"/><path class="cls-1" d="M133.22,72.13c0,19.75-14.69,35.76-14.69,35.76s-14.7-16-14.7-35.76,14.7-35.76,14.7-35.76S133.22,52.38,133.22,72.13Z"/><path class="cls-1" d="M175.2,44.68c0,19.75-14.7,35.76-14.7,35.76s-14.7-16-14.7-35.76S160.5,8.93,160.5,8.93,175.2,24.94,175.2,44.68Z"/><path class="cls-2" d="M210.12,169.15H75.57v-10H200a2,2,0,0,0,.79-3.75V110.05c2.7-3.14,14.7-18.12,14.7-36.5,0-20.28-14.6-36.41-15.22-37.09a2,2,0,0,0-2.89,0c-.62.68-15.21,16.81-15.21,37.09,0,18.38,12,33.36,14.7,36.5v45.16h-80v-10h73a2,2,0,1,0,0-3.92h-73v-10h62.83a2,2,0,1,0,0-3.92H158.77V82.6c2.71-3.14,14.7-18.11,14.7-36.5,0-20.28-14.59-36.41-15.21-37.08a2,2,0,0,0-2.89,0c-.62.67-15.22,16.8-15.22,37.08,0,18.39,12,33.36,14.7,36.5v44.73h-38V110.05c2.7-3.14,14.7-18.12,14.7-36.5,0-20.28-14.59-36.41-15.22-37.09a2,2,0,0,0-2.88,0c-.63.68-15.22,16.81-15.22,37.09,0,18.38,12,33.36,14.7,36.5v17.28H95.31a2,2,0,1,0,0,3.92h17.57v10H85.15a2,2,0,1,0,0,3.92h27.73v10H75.57V136.44c2.7-3.14,14.7-18.11,14.7-36.5,0-20.28-14.59-36.41-15.22-37.08a2,2,0,0,0-2.88,0C71.54,63.53,57,79.66,57,99.94c0,18.39,12,33.36,14.7,36.5v32.71H64.82a2,2,0,0,0,0,3.92h145.3a2,2,0,1,0,0-3.92Zm-66.05-123c0-15.09,9.13-28.13,12.74-32.7C160.42,18,169.55,31,169.55,46.1c0,12.83-6.58,24.15-10.78,30.07V63.29a2,2,0,0,0-3.92,0V76.17C150.66,70.25,144.07,58.93,144.07,46.1Zm-42,27.45c0-15.1,9.13-28.13,12.74-32.7,3.61,4.57,12.74,17.6,12.74,32.7,0,12.82-6.58,24.14-10.78,30.06V90.73a2,2,0,1,0-3.92,0v12.88C108.68,97.69,102.1,86.37,102.1,73.55Zm84,0c0-15.1,9.12-28.14,12.74-32.7,3.61,4.56,12.73,17.6,12.73,32.7,0,12.82-6.58,24.14-10.77,30.06V90.73a2,2,0,0,0-3.92,0v12.88C192.63,97.69,186.05,86.37,186.05,73.55ZM60.87,99.94c0-15.1,9.13-28.13,12.74-32.7,3.61,4.57,12.74,17.6,12.74,32.7,0,12.83-6.58,24.15-10.78,30.07V113.63a2,2,0,0,0-3.92,0V130C67.45,124.09,60.87,112.77,60.87,99.94Z"/></svg>