<svg id="Layer_1" data-name="Layer 1" xmlns="http://www.w3.org/2000/svg" viewBox="0 0 274.12 181.48"><defs><style>.cls-1{fill:#abb7d0;}.cls-2{fill:#013289;}</style></defs><title>Web Icons</title><path class="cls-1" d="M217,97.4h-8.12a1.45,1.45,0,0,0-1.45,1.45v16.28a1.45,1.45,0,0,1-2.4,1.09L173.5,88.8a1.44,1.44,0,0,1,0-2.19L205,59.19a1.45,1.45,0,0,1,2.4,1.1V76.57A1.45,1.45,0,0,0,208.87,78H217"/><path class="cls-1" d="M61.51,97.4h8.12a1.45,1.45,0,0,1,1.46,1.45v16.28a1.45,1.45,0,0,0,2.4,1.09L105,88.8a1.46,1.46,0,0,0,0-2.19L73.49,59.19a1.45,1.45,0,0,0-2.4,1.1V76.57A1.45,1.45,0,0,1,69.63,78H61.51Z"/><path class="cls-2" d="M94.53,18.07a2,2,0,0,0-3.48,1.82C104,44.56,110.41,69.14,110.21,93c-.2,23.06-6.64,46.13-19.13,68.58a2,2,0,0,0,.76,2.67,1.95,1.95,0,0,0,2.66-.76c12.82-23,19.42-46.73,19.63-70.45C114.34,68.53,107.74,43.32,94.53,18.07Z"/><path class="cls-2" d="M114.31,17.08a2,2,0,0,0-1.4,2.4c12.76,48.73,12.76,96.67,0,142.49A2,2,0,1,0,116.7,163c12.94-46.49,12.94-95.12,0-144.53A2,2,0,0,0,114.31,17.08Z"/><path class="cls-2" d="M136.83,17a2,2,0,0,0-2,2V162.5a2,2,0,1,0,3.92,0V19A2,2,0,0,0,136.83,17Z"/><path class="cls-2" d="M160.74,19.48a2,2,0,1,0-3.79-1C144,67.9,144,116.53,157,163a2,2,0,0,0,1.89,1.44,1.86,1.86,0,0,0,.52-.07,2,2,0,0,0,1.37-2.42C148,116.15,148,68.21,160.74,19.48Z"/><path class="cls-2" d="M163.45,93c-.21-23.82,6.24-48.4,19.15-73.07a2,2,0,1,0-3.47-1.82C165.91,43.32,159.32,68.53,159.53,93c.2,23.72,6.8,47.42,19.62,70.45a2,2,0,0,0,1.72,1,1.93,1.93,0,0,0,.95-.25,2,2,0,0,0,.76-2.67C170.08,139.09,163.65,116,163.45,93Z"/><path class="cls-2" d="M206.45,83h8.12a2,2,0,1,0,0-3.92H207V63.32a3.41,3.41,0,0,0-5.66-2.57L169.79,88.17a3.39,3.39,0,0,0,0,5.14l31.51,27.42a3.38,3.38,0,0,0,2.23.85,3.45,3.45,0,0,0,1.43-.31,3.4,3.4,0,0,0,2-3.11V102.39h7.61a2,2,0,0,0,0-3.92h-8.12a3.42,3.42,0,0,0-3.42,3.41V117L172.8,90.74,203,64.44V79.6A3.42,3.42,0,0,0,206.45,83Z"/><path class="cls-2" d="M105,90.74a3.4,3.4,0,0,0-1.17-2.57L72.35,60.75a3.41,3.41,0,0,0-5.65,2.57V79.09H59.09a2,2,0,1,0,0,3.92h8.12a3.41,3.41,0,0,0,3.41-3.41V64.44l30.23,26.3L70.62,117V101.88a3.41,3.41,0,0,0-3.41-3.41H59.09a2,2,0,0,0,0,3.92H66.7v15.77a3.4,3.4,0,0,0,5.65,2.57l31.52-27.42A3.4,3.4,0,0,0,105,90.74Z"/></svg>